HIERARCHY
ROOT Hips
{
	OFFSET 0.000000 0.000000 0.000000 
	CHANNELS 6 Xposition Yposition Zposition Yrotation Zrotation Xrotation 
	JOINT Lumbar
	{
		OFFSET 0.000000 0.000000 0.000000 
		CHANNELS 3 Zrotation Xrotation Yrotation
		JOINT Neck
		{
			OFFSET 0.000000 0.445665 0.000000 
			CHANNELS 3 Zrotation Xrotation Yrotation
			End Site
			{
				OFFSET 0.000000 0.227535 0.000000 
			}
		}
		JOINT RightShoulder
		{
			OFFSET 0.019635 0.377685 0.194865 
			CHANNELS 3 Zrotation Xrotation Yrotation
			JOINT RightElbow
			{
				OFFSET 0.000000 -0.243375 0.000000 
				CHANNELS 2 Zrotation Yrotation
				JOINT RightWrist
				{
					OFFSET 0.000000 -0.264825 0.000000 
					CHANNELS 2 Zrotation Xrotation
					End Site
					{
						OFFSET 0.006600 -0.176220 0.000990 
					}
				}
			}
		}
		JOINT LeftShoulder
		{
			OFFSET 0.019635 0.377685 -0.194865 
			CHANNELS 3 Zrotation Xrotation Yrotation
			JOINT LeftElbow
			{
				OFFSET 0.000000 -0.243375 0.000000 
				CHANNELS 2 Zrotation Yrotation
				JOINT LeftWrist
				{
					OFFSET 0.000000 -0.264825 0.000000 
					CHANNELS 2 Zrotation Xrotation
					End Site
					{
						OFFSET 0.006600 -0.176220 -0.000990 
					}
				}
			}
		}
	}
	JOINT RightHip
	{
		OFFSET 0.052140 -0.069960 0.075570 
		CHANNELS 3 Zrotation Xrotation Yrotation
		JOINT RightKnee
		{
			OFFSET 0.000000 -0.402270 0.000000 
			CHANNELS 1 Zrotation
			JOINT RightAnkle
			{
				OFFSET 0.000000 -0.404085 0.000000 
				CHANNELS 3 Zrotation Xrotation Yrotation
				End Site
				{
					OFFSET 0.204105 -0.089430 0.008415 
				}
			}
		}
	}
	JOINT LeftHip
	{
		OFFSET 0.052140 -0.069960 -0.075570 
		CHANNELS 3 Zrotation Xrotation Yrotation
		JOINT LeftKnee
		{
			OFFSET 0.000000 -0.402270 0.000000 
			CHANNELS 1 Zrotation
			JOINT LeftAnkle
			{
				OFFSET 0.000000 -0.404085 0.000000 
				CHANNELS 3 Zrotation Xrotation Yrotation
				End Site
				{
					OFFSET 0.204105 -0.089430 -0.008415 
				}
			}
		}
	}
}
MOTION
Frames: 28
Frame Time: 0.02
0.14525 0.03815 -0.18761 15.90876 -33.76298 -11.10284 36.89276 -0.83278 10.08419 7.35248 -2.70941 -2.10341 104.41432 -2.91262 55.63027 15.9927 87.99168 32.89366 -2.29646 61.76567 34.4275 -48.00997 55.35013 -62.99044 15.49742 8.23123 40.2086 -7.45477 -9.21269 -22.56509 -7.74632 -1.31855 -2.93641 57.01553 7.71121 7.15566 -27.97713 -6.90002 0.73696 2.62527
0.14556 0.03861 -0.18781 15.83075 -33.68608 -11.10204 37.09846 -0.54566 10.13829 7.19271 -1.44841 -2.10348 103.73516 -1.9532 55.63852 16.25019 87.5842 33.71566 -2.35104 60.94795 35.65364 -48.07538 56.77412 -62.55401 15.14747 8.21843 40.19639 -7.51417 -9.24461 -22.65084 -7.78331 -1.2745 -2.91777 56.85924 7.72525 7.13131 -27.92506 -6.89815 0.7495 2.63053
0.14579 0.03922 -0.18797 15.68618 -33.67428 -11.16972 37.30617 -0.23917 10.16667 6.93401 -0.14409 -2.10355 103.01561 -0.98275 55.63509 16.82596 86.91243 34.73292 -2.43454 59.99603 37.14848 -48.0977 58.71292 -61.89811 14.81375 8.12855 40.23997 -7.53184 -9.31974 -22.66015 -7.83356 -1.21752 -2.89377 56.79283 7.77101 7.01177 -27.86357 -6.8996 0.77004 2.63948
0.14605 0.03975 -0.18815 15.56895 -33.63744 -11.20649 37.51033 0.05748 10.20905 6.71715 1.13412 -2.10362 102.28612 -0.06054 55.6149 17.36676 86.40585 35.64537 -2.50103 59.0886 38.53585 -48.12323 60.45601 -61.42502 14.45759 8.07116 40.26249 -7.56724 -9.3691 -22.70046 -7.87756 -1.16726 -2.87254 56.6915 7.80287 6.93944 -27.80699 -6.90001 0.78632 2.64652
0.14635 0.0403 -0.18831 15.46149 -33.58165 -11.24321 37.72629 0.35891 10.24123 6.51142 2.44307 -2.10369 101.67161 1.05011 55.68315 17.45392 85.70938 36.63283 -2.58429 58.24513 39.87158 -48.21414 62.05689 -60.61962 14.15974 8.02585 40.26778 -7.60744 -9.44497 -22.75603 -7.9229 -1.11298 -2.84967 56.56546 7.8337 6.85012 -27.74771 -6.8986 0.80533 2.65457
0.14655 0.04085 -0.1885 15.31914 -33.58119 -11.29615 37.91758 0.65471 10.28897 6.25906 3.69592 -2.10376 100.81173 1.76687 55.57001 18.5585 85.34036 37.5076 -2.63959 57.23512 41.37297 -48.15516 64.07048 -60.44375 13.74731 7.93572 40.32233 -7.62789 -9.47576 -22.76183 -7.96843 -1.06418 -2.82905 56.51291 7.87349 6.77301 -27.69196 -6.90172 0.82056 2.6614
0.14652 0.04133 -0.18876 15.09319 -33.71163 -11.37506 38.04407 0.93146 10.38291 5.91124 4.79487 -2.10383 99.25926 1.41543 54.91037 22.38712 86.00425 38.02316 -2.60705 55.84431 43.28819 -47.75504 67.07706 -62.1006 13.00193 7.75225 40.4934 -7.60381 -9.3703 -22.64923 -8.01119 -1.0336 -2.81592 56.63178 7.93372 6.7615 -27.64675 -6.91641 0.82272 2.66379
0.14639 0.04179 -0.18906 14.83552 -33.89653 -11.4682 38.14489 1.20151 10.49397 5.51863 5.8331 -2.10389 97.46618 0.66331 54.07637 27.2275 86.99598 38.4169 -2.54589 54.28447 45.35549 -47.19642 70.48145 -64.38732 12.14342 7.525 40.71296 -7.56137 -9.21824 -22.48919 -8.05359 -1.00907 -2.8053 56.82317 8.00111 6.76413 -27.60571 -6.93556 0.82087 2.66484
0.14629 0.04226 -0.18935 14.5948 -34.06023 -11.55597 38.25499 1.47391 10.59922 5.14101 6.89145 -2.10396 95.79996 0.07852 53.35575 31.60959 87.7959 38.86645 -2.50006 52.77164 47.33755 -46.66946 73.71504 -66.359 11.34585 7.30904 40.91395 -7.52755 -9.08804 -22.35078 -8.09614 -0.98185 -2.79358 56.98736 8.06284 6.75475 -27.56371 -6.95273 0.82127 2.66661
0.14624 0.04275 -0.18961 14.34046 -34.21109 -11.64136 38.37538 1.75034 10.69533 4.78257 7.98386 -2.10403 94.0585 -0.44679 52.49605 36.00124 88.76574 39.32394 -2.44551 51.37498 49.39744 -46.30659 76.92733 -68.45147 10.5094 7.12315 41.10236 -7.49113 -8.95593 -22.20945 -8.1393 -0.95384 -2.78145 57.13016 8.13586 6.76548 -27.51737 -6.96982 0.82024 2.66807
0.14606 0.04318 -0.18993 14.10853 -34.40096 -11.7344 38.46801 2.01601 10.81478 4.37479 8.98914 -2.1041 92.41697 -1.18713 51.8779 40.60324 89.4649 39.72977 -2.40185 49.70404 51.3275 -45.57077 80.26852 -70.43644 9.72577 6.86976 41.32764 -7.45627 -8.81685 -22.06387 -8.18084 -0.92918 -2.77088 57.33388 8.18663 6.73909 -27.48125 -6.9881 0.82101 2.66977
0.14552 0.04349 -0.1904 13.94064 -34.68319 -11.84294 38.4918 2.25762 10.99556 3.84276 9.77809 -2.10417 91.11374 -2.45994 52.03032 45.58497 89.32093 40.05275 -2.39606 47.26615 52.86145 -43.79244 83.89059 -72.04289 9.12569 6.40157 41.64367 -7.43094 -8.66385 -21.91912 -8.21882 -0.91158 -2.76367 57.68479 8.17421 6.6056 -27.472 -7.00848 0.8287 2.67285
0.14485 0.04375 -0.19092 13.79773 -35.00274 -11.95869 38.48815 2.48767 11.19924 3.26307 10.4792 -2.10424 89.92011 -3.92877 52.42178 50.7317 88.89715 40.32159 -2.40199 44.56826 54.25712 -41.65322 87.62071 -73.50758 8.58103 5.87416 41.99462 -7.40792 -8.50636 -21.77198 -8.25496 -0.89735 -2.75802 58.09456 8.13892 6.43478 -27.47303 -7.0299 0.83816 2.67616
0.14424 0.04402 -0.19142 13.64752 -35.30636 -12.07231 38.49612 2.7204 11.39174 2.70483 11.21451 -2.10431 88.67273 -5.28351 52.66234 55.7727 88.6134 40.59416 -2.4018 42.02356 55.71638 -39.71434 91.28549 -74.98999 8.00393 5.40056 42.32886 -7.38352 -8.35467 -21.62563 -8.29137 -0.88211 -2.75191 58.47925 8.11403 6.28256 -27.4696 -7.05094 0.84607 2.6791
0.14364 0.04433 -0.19191 13.47934 -35.60805 -12.18194 38.50711 2.9642 11.58773 2.14523 11.97303 -2.10439 87.42878 -6.75678 53.07014 60.98511 88.28792 40.94962 -2.40368 39.32511 57.18244 -37.62018 95.0376 -76.68892 7.45222 4.81388 42.66866 -7.3597 -8.18547 -21.47866 -8.33023 -0.86486 -2.74486 58.85996 8.08965 6.1247 -27.46536 -7.07183 0.85681 2.68304
0.14299 0.04455 -0.19242 13.35456 -35.92131 -12.30103 38.50522 3.18175 11.78213 1.57852 12.66167 -2.10446 86.21285 -8.02579 53.19505 65.85879 87.97701 41.12255 -2.40476 36.88724 58.59388 -35.76123 98.62251 -77.89813 6.86386 4.44669 43.00418 -7.33564 -8.05235 -21.33325 -8.36349 -0.85252 -2.74008 59.26137 8.05832 5.96851 -27.46526 -7.09309 0.86235 2.68507
0.14223 0.04458 -0.19294 13.34699 -36.26188 -12.44742 38.47809 3.33423 11.9622 0.99795 13.19122 -2.10452 84.99744 -8.66906 52.42589 69.8145 87.78804 40.79273 -2.39782 35.23561 59.93477 -34.6815 101.76383 -77.75993 6.14801 4.72239 43.3221 -7.309 -8.0194 -21.19132 -8.38216 -0.85307 -2.74123 59.71041 8.01649 5.83585 -27.47347 -7.11625 0.85109 2.6808
0.14142 0.04453 -0.19347 13.38172 -36.61159 -12.60246 38.43841 3.45984 12.14045 0.41344 13.65127 -2.10459 83.81704 -9.10009 51.37458 73.40614 87.61957 40.28386 -2.39031 33.85604 61.21596 -33.84492 104.72172 -77.13612 5.39657 5.21699 43.63372 -7.28237 -8.02317 -21.05163 -8.39515 -0.85841 -2.74457 60.17689 7.968 5.7049 -27.48559 -7.13955 0.83488 2.67476
0.14064 0.04451 -0.194 13.39499 -36.95397 -12.75154 38.40226 3.59485 12.32251 -0.16545 14.13557 -2.10466 82.65455 -9.63585 50.48939 77.12348 87.43104 39.8655 -2.38521 32.35007 62.49324 -32.86953 107.73361 -76.75113 4.67 5.5971 43.94621 -7.25673 -8.0108 -20.912 -8.41046 -0.86141 -2.74684 60.63196 7.92024 5.56587 -27.49629 -7.16202 0.82233 2.67023
0.13985 0.0445 -0.19453 13.41863 -37.3114 -12.90948 38.37431 3.7415 12.49346 -0.76312 14.64853 -2.10472 81.35272 -10.14562 49.45352 81.02157 87.27714 39.40683 -2.37167 30.84435 63.89694 -31.99725 110.87778 -76.28538 3.90748 6.0389 44.2685 -7.22701 -7.99623 -20.76741 -8.42686 -0.86518 -2.74948 61.10424 7.88064 5.45375 -27.5058 -7.18769 0.80407 2.66287
0.13907 0.04445 -0.19504 13.4303 -37.63877 -13.05088 38.32668 3.85748 12.68596 -1.32083 15.08545 -2.10479 80.34829 -10.6542 48.66005 84.44628 87.06107 38.99002 -2.3751 29.40893 65.02479 -30.97734 113.69605 -75.87385 3.21205 6.40446 44.56827 -7.2057 -7.99467 -20.63409 -8.43962 -0.86847 -2.75184 61.54356 7.82369 5.28978 -27.51863 -7.2068 0.79624 2.66082
0.13835 0.0443 -0.19549 13.3994 -37.88372 -13.14477 38.22784 3.89704 12.94553 -1.77656 15.33817 -2.10485 80.15555 -11.22986 48.61709 86.71805 86.65611 38.73607 -2.42827 28.0807 65.40631 -29.45419 115.7019 -75.73537 2.69916 6.51062 44.80822 -7.20816 -8.02305 -20.52822 -8.44397 -0.86904 -2.75288 61.89087 7.71256 4.95335 -27.53934 -7.20689 0.82073 2.67533
0.13765 0.04412 -0.19591 13.35478 -38.09723 -13.2216 38.10977 3.90638 13.22531 -2.1898 15.51548 -2.10491 80.26115 -11.80743 48.82522 88.51158 86.19129 38.53045 -2.49802 26.82032 65.51244 -27.78398 117.37636 -75.66884 2.25708 6.53192 45.02521 -7.21893 -8.06255 -20.4342 -8.4448 -0.86901 -2.75358 62.2033 7.58569 4.56982 -27.56325 -7.2005 0.85546 2.69499
0.13694 0.04396 -0.19634 13.31568 -38.32326 -13.30605 38.0006 3.92855 13.49117 -2.6163 15.72211 -2.10497 80.22951 -12.37063 48.90815 90.48205 85.76356 38.30023 -2.55826 25.54185 65.74528 -26.20492 119.17549 -75.56602 1.78956 6.58932 45.25228 -7.2256 -8.09526 -20.33685 -8.4471 -0.86935 -2.75442 62.52947 7.47147 4.22756 -27.58587 -7.19766 0.88392 2.71131
0.13623 0.0438 -0.19678 13.28083 -38.55771 -13.39149 37.89025 3.9537 13.7774 -3.06911 15.94752 -2.10504 80.20368 -12.98241 49.02469 92.61585 85.29563 38.07326 -2.62664 24.21333 65.97091 -24.526 121.08263 -75.45796 1.29159 6.66477 45.48145 -7.23388 -8.13732 -20.23095 -8.44978 -0.86931 -2.75532 62.86594 7.33422 3.80333 -27.608 -7.19234 0.91891 2.73173
0.13553 0.04362 -0.19719 13.23367 -38.76625 -13.47054 37.778 3.96569 14.02552 -3.45624 16.11636 -2.1051 80.23923 -13.49763 49.13891 94.29391 84.89575 37.85531 -2.68223 23.00863 66.14505 -23.02384 122.68239 -75.38846 0.87529 6.67959 45.69985 -7.2405 -8.16116 -20.14561 -8.45085 -0.87002 -2.75606 63.17151 7.24076 3.53631 -27.6318 -7.19054 0.94293 2.74496
0.1348 0.04341 -0.1975 13.15246 -38.91748 -13.53746 37.66514 3.94995 14.16774 -3.67801 16.15164 -2.10513 80.34284 -13.73212 49.14582 94.88692 84.71112 37.63329 -2.69619 22.0695 66.2603 -21.98749 123.56559 -75.37298 0.66001 6.54698 45.90267 -7.24274 -8.14006 -20.11452 -8.44878 -0.87157 -2.75571 63.40791 7.27676 3.73439 -27.65977 -7.20085 0.93321 2.73618
0.13407 0.04318 -0.19778 13.05969 -39.04238 -13.5982 37.55117 3.92191 14.27012 -3.83378 16.13205 -2.10515 80.50181 -13.87143 49.14849 95.028 84.59596 37.42197 -2.69694 21.26283 66.3301 -21.14411 124.14148 -75.40182 0.52654 6.35527 46.09379 -7.24267 -8.09888 -20.10369 -8.44515 -0.87407 -2.7553 63.61278 7.35646 4.08834 -27.6892 -7.21476 0.91236 2.7202
